USFL
nRows=165
nColumns=2
inDegrees=yes
endheader
time	med_gas_r	
1.93738	 48.068058	
1.99987	 48.110855	
2.06237	 48.132529	
2.12486	 48.170401	
2.18736	 48.190328	
2.24986	 48.186637	
2.31235	 48.198321	
2.37485	 48.246370	
2.43734	 48.246757	
2.49984	 48.350533	
2.56234	 48.392354	
2.62483	 48.362452	
2.68733	 48.225595	
2.74982	 48.159244	
2.81232	 48.054831	
2.87482	 47.951862	
2.93731	 47.895946	
2.99981	 47.882843	
3.0623	 47.727845	
3.1248	 47.689213	
3.1873	 47.662354	
3.24979	 47.597801	
3.31229	 47.541389	
3.37478	 47.546164	
3.43728	 47.664672	
3.49978	 47.763604	
3.56227	 47.801475	
3.62477	 47.636558	
3.68726	 47.645025	
3.74976	 47.644440	
3.81226	 47.885179	
3.87475	 47.908983	
3.93725	 47.912346	
3.99974	 47.836009	
4.06224	 47.796052	
4.12474	 47.761874	
4.18723	 47.771891	
4.24973	 47.757505	
4.31222	 47.792465	
4.37472	 47.776219	
4.43722	 47.790417	
4.49971	 47.775992	
4.56221	 47.663707	
4.6247	 47.548400	
4.6872	 47.538461	
4.7497	 47.541894	
4.81219	 46.679778	
4.87469	 46.497658	
4.93718	 46.331016	
4.99968	 46.472047	
5.06218	 46.407572	
5.12467	 46.525885	
5.18717	 46.596396	
5.24966	 46.649172	
5.31216	 46.561454	
5.37466	 46.482529	
5.43715	 46.323297	
5.49965	 46.245733	
5.56214	 46.471578	
5.62464	 46.436019	
5.68714	 46.464296	
5.74963	 46.595110	
5.81213	 46.494347	
5.87462	 46.262878	
5.93712	 46.261387	
5.99962	 46.272665	
6.06211	 46.224731	
6.12461	 46.211805	
6.1871	 46.151184	
6.2496	 46.277715	
6.3121	 46.259521	
6.37459	 46.192505	
6.43709	 45.628608	
6.49958	 45.704227	
6.56208	 45.666212	
6.62458	 45.758532	
6.68707	 45.824899	
6.74957	 45.785677	
6.81206	 45.786662	
6.87456	 45.834263	
6.93706	 45.856641	
6.99955	 45.836179	
7.06205	 45.778133	
7.12454	 45.755916	
7.18704	 45.683758	
7.24954	 45.630207	
7.31203	 45.627423	
7.37453	 45.593707	
7.43702	 45.478838	
7.49952	 45.518727	
7.56202	 45.437334	
7.62451	 45.409880	
7.68701	 45.342274	
7.7495	 45.247606	
7.812	 45.136468	
7.8745	 44.985501	
7.93699	 44.862415	
7.99949	 44.936887	
8.06198	 44.923570	
8.12448	 44.826476	
8.18698	 44.824440	
8.24947	 44.796561	
8.31197	 44.691990	
8.37446	 44.716431	
8.43696	 44.705896	
8.49946	 44.756189	
8.56195	 44.717073	
8.62445	 44.742498	
8.68694	 44.668301	
8.74944	 44.627095	
8.81194	 44.652705	
8.87443	 44.554335	
8.93693	 44.600048	
8.99942	 44.634171	
9.06192	 44.667621	
9.12442	 44.627642	
9.18691	 44.696063	
9.24941	 44.626969	
9.3119	 44.508155	
9.3744	 44.533908	
9.4369	 44.297063	
9.49939	 44.341250	
9.56189	 43.909241	
9.62438	 43.890374	
9.68688	 43.944895	
9.74938	 43.961453	
9.81187	 44.067817	
9.87437	 43.951516	
9.93686	 44.050727	
9.99936	 43.914431	
10.0619	 43.943406	
10.1244	 43.778722	
10.1868	 43.630263	
10.2493	 43.545329	
10.3118	 43.510447	
10.3743	 43.571336	
10.4368	 43.573631	
10.4993	 43.538502	
10.5618	 43.556354	
10.6243	 43.513031	
10.6868	 43.654912	
10.7493	 43.656807	
10.8118	 43.615091	
10.8743	 43.834885	
10.9368	 44.013931	
10.9993	 44.006674	
11.0618	 44.090933	
11.1243	 44.046425	
11.1868	 43.924236	
11.2493	 43.956866	
11.3118	 44.997570	
11.3743	 44.782182	
11.4368	 47.205589	
11.4993	 47.025179	
11.5618	 46.908578	
11.6243	 46.745513	
11.6868	 47.146908	
11.7492	 47.234302	
11.8117	 47.224220	
11.8742	 47.148013	
11.9367	 47.049270	
11.9992	 46.959021	
12.0617	 47.040485	
12.1242	 47.022883	
12.1867	 47.069952	
